# xmcd CD database file
#
# Track frame offsets:
#	150
#	23550
#	44250
#	67803
#
# Disc length: 1178 seconds
#
# Revision: 0
# Processed by: cddbd v1.5.1PL0 Copyright (c) Steve Scherf et al.
# Submitted via: CDex 1.51
#
DISCID=25049804
DTITLE=オノ・アヤコ - 青い鳥が逃げた
DYEAR=2002
DGENRE=JPop
TTITLE0=青い鳥が逃げた
TTITLE1=彼女の情景
TTITLE2=青い鳥が逃げた (Instrumental)
TTITLE3=彼女の情景 (Instrumental)
EXTD=YEAR: 2002
EXTT0=
EXTT1=
EXTT2=
EXTT3=
PLAYORDER=
